<mxfile host="app.diagrams.net" modified="2020-10-07T04:25:55.343Z" agent="5.0 (Windows NT 10.0; Win64; x64) AppleWebKit/537.36 (KHTML, like Gecko) Chrome/85.0.4183.121 Safari/537.36 Edg/85.0.564.68" etag="TvvzUISMReWCX6LIP8le" version="13.7.7" type="github">
  <diagram id="R2lEEEUBdFMjLlhIrx00" name="Page-1">
    <mxGraphModel dx="1774" dy="1522" grid="1" gridSize="10" guides="1" tooltips="1" connect="1" arrows="1" fold="1" page="1" pageScale="1" pageWidth="850" pageHeight="1100" math="0" shadow="0" extFonts="Permanent Marker^https://fonts.googleapis.com/css?family=Permanent+Marker">
      <root>
        <mxCell id="0" />
        <mxCell id="1" parent="0" />
        <mxCell id="uLpN24I7uQ6Q-Pao7zNZ-38" value="User" style="whiteSpace=wrap;html=1;align=center;" vertex="1" parent="1">
          <mxGeometry x="-50" y="157.5" width="100" height="40" as="geometry" />
        </mxCell>
        <mxCell id="uLpN24I7uQ6Q-Pao7zNZ-40" value="ShoppingCart" style="whiteSpace=wrap;html=1;align=center;" vertex="1" parent="1">
          <mxGeometry x="200" y="246.84000000000003" width="100" height="40" as="geometry" />
        </mxCell>
        <mxCell id="uLpN24I7uQ6Q-Pao7zNZ-41" value="Parts" style="whiteSpace=wrap;html=1;align=center;" vertex="1" parent="1">
          <mxGeometry x="730" y="157.5" width="100" height="40" as="geometry" />
        </mxCell>
        <mxCell id="uLpN24I7uQ6Q-Pao7zNZ-43" value="&lt;u&gt;partName&lt;/u&gt;" style="ellipse;whiteSpace=wrap;html=1;align=center;" vertex="1" parent="1">
          <mxGeometry x="880" y="67.5" width="100" height="40" as="geometry" />
        </mxCell>
        <mxCell id="uLpN24I7uQ6Q-Pao7zNZ-46" value="part_URL" style="ellipse;whiteSpace=wrap;html=1;align=center;" vertex="1" parent="1">
          <mxGeometry x="880" y="127.5" width="100" height="40" as="geometry" />
        </mxCell>
        <mxCell id="uLpN24I7uQ6Q-Pao7zNZ-47" value="img_URL" style="ellipse;whiteSpace=wrap;html=1;align=center;" vertex="1" parent="1">
          <mxGeometry x="880" y="187.5" width="100" height="40" as="geometry" />
        </mxCell>
        <mxCell id="uLpN24I7uQ6Q-Pao7zNZ-48" value="price" style="ellipse;whiteSpace=wrap;html=1;align=center;" vertex="1" parent="1">
          <mxGeometry x="880" y="247.5" width="100" height="40" as="geometry" />
        </mxCell>
        <mxCell id="uLpN24I7uQ6Q-Pao7zNZ-52" value="" style="endArrow=none;html=1;exitX=1;exitY=0.5;exitDx=0;exitDy=0;entryX=0;entryY=0.5;entryDx=0;entryDy=0;" edge="1" parent="1" source="uLpN24I7uQ6Q-Pao7zNZ-41" target="uLpN24I7uQ6Q-Pao7zNZ-43">
          <mxGeometry width="50" height="50" relative="1" as="geometry">
            <mxPoint x="870" y="107.5" as="sourcePoint" />
            <mxPoint x="920" y="57.5" as="targetPoint" />
          </mxGeometry>
        </mxCell>
        <mxCell id="uLpN24I7uQ6Q-Pao7zNZ-53" value="" style="endArrow=none;html=1;exitX=1;exitY=0.5;exitDx=0;exitDy=0;entryX=0;entryY=0.5;entryDx=0;entryDy=0;" edge="1" parent="1" source="uLpN24I7uQ6Q-Pao7zNZ-41" target="uLpN24I7uQ6Q-Pao7zNZ-46">
          <mxGeometry width="50" height="50" relative="1" as="geometry">
            <mxPoint x="840" y="187.5" as="sourcePoint" />
            <mxPoint x="919.9999999999987" y="97.5" as="targetPoint" />
          </mxGeometry>
        </mxCell>
        <mxCell id="uLpN24I7uQ6Q-Pao7zNZ-54" value="" style="endArrow=none;html=1;entryX=0;entryY=0.5;entryDx=0;entryDy=0;" edge="1" parent="1" target="uLpN24I7uQ6Q-Pao7zNZ-47">
          <mxGeometry width="50" height="50" relative="1" as="geometry">
            <mxPoint x="830" y="177.5" as="sourcePoint" />
            <mxPoint x="919.9999999999987" y="157.5" as="targetPoint" />
          </mxGeometry>
        </mxCell>
        <mxCell id="uLpN24I7uQ6Q-Pao7zNZ-55" value="" style="endArrow=none;html=1;entryX=0;entryY=0.5;entryDx=0;entryDy=0;" edge="1" parent="1" target="uLpN24I7uQ6Q-Pao7zNZ-48">
          <mxGeometry width="50" height="50" relative="1" as="geometry">
            <mxPoint x="830" y="177.5" as="sourcePoint" />
            <mxPoint x="919.9999999999987" y="217.5" as="targetPoint" />
          </mxGeometry>
        </mxCell>
        <mxCell id="uLpN24I7uQ6Q-Pao7zNZ-56" value="uName" style="ellipse;whiteSpace=wrap;html=1;align=center;fontStyle=4;" vertex="1" parent="1">
          <mxGeometry x="350" y="220" width="100" height="40" as="geometry" />
        </mxCell>
        <mxCell id="uLpN24I7uQ6Q-Pao7zNZ-57" value="" style="endArrow=none;html=1;exitX=1;exitY=0.5;exitDx=0;exitDy=0;entryX=0;entryY=0.5;entryDx=0;entryDy=0;" edge="1" parent="1" source="uLpN24I7uQ6Q-Pao7zNZ-40" target="uLpN24I7uQ6Q-Pao7zNZ-56">
          <mxGeometry width="50" height="50" relative="1" as="geometry">
            <mxPoint x="340.28" y="321.84000000000003" as="sourcePoint" />
            <mxPoint x="320" y="254.84000000000003" as="targetPoint" />
          </mxGeometry>
        </mxCell>
        <mxCell id="uLpN24I7uQ6Q-Pao7zNZ-59" value="partName" style="ellipse;whiteSpace=wrap;html=1;align=center;" vertex="1" parent="1">
          <mxGeometry x="350" y="272.5" width="100" height="40" as="geometry" />
        </mxCell>
        <mxCell id="uLpN24I7uQ6Q-Pao7zNZ-60" value="" style="endArrow=none;html=1;exitX=1;exitY=0.5;exitDx=0;exitDy=0;entryX=0;entryY=0.5;entryDx=0;entryDy=0;" edge="1" parent="1" source="uLpN24I7uQ6Q-Pao7zNZ-40" target="uLpN24I7uQ6Q-Pao7zNZ-59">
          <mxGeometry width="50" height="50" relative="1" as="geometry">
            <mxPoint x="310.28" y="341.84000000000003" as="sourcePoint" />
            <mxPoint x="360.28" y="281.84000000000003" as="targetPoint" />
          </mxGeometry>
        </mxCell>
        <mxCell id="uLpN24I7uQ6Q-Pao7zNZ-65" value="Wishlist" style="whiteSpace=wrap;html=1;align=center;" vertex="1" parent="1">
          <mxGeometry x="200" y="80" width="100" height="40" as="geometry" />
        </mxCell>
        <mxCell id="uLpN24I7uQ6Q-Pao7zNZ-66" value="uName" style="ellipse;whiteSpace=wrap;html=1;align=center;fontStyle=4;" vertex="1" parent="1">
          <mxGeometry x="355" y="55" width="100" height="40" as="geometry" />
        </mxCell>
        <mxCell id="uLpN24I7uQ6Q-Pao7zNZ-67" value="" style="endArrow=none;html=1;exitX=1;exitY=0.5;exitDx=0;exitDy=0;entryX=0;entryY=0.5;entryDx=0;entryDy=0;" edge="1" parent="1" source="uLpN24I7uQ6Q-Pao7zNZ-65" target="uLpN24I7uQ6Q-Pao7zNZ-66">
          <mxGeometry width="50" height="50" relative="1" as="geometry">
            <mxPoint x="400.07" y="125" as="sourcePoint" />
            <mxPoint x="450.07" y="75" as="targetPoint" />
          </mxGeometry>
        </mxCell>
        <mxCell id="uLpN24I7uQ6Q-Pao7zNZ-68" value="partName" style="ellipse;whiteSpace=wrap;html=1;align=center;" vertex="1" parent="1">
          <mxGeometry x="355" y="105" width="100" height="40" as="geometry" />
        </mxCell>
        <mxCell id="uLpN24I7uQ6Q-Pao7zNZ-69" value="" style="endArrow=none;html=1;exitX=1;exitY=0.5;exitDx=0;exitDy=0;entryX=0;entryY=0.5;entryDx=0;entryDy=0;" edge="1" parent="1" source="uLpN24I7uQ6Q-Pao7zNZ-65" target="uLpN24I7uQ6Q-Pao7zNZ-68">
          <mxGeometry width="50" height="50" relative="1" as="geometry">
            <mxPoint x="370.07" y="145" as="sourcePoint" />
            <mxPoint x="420.07" y="85" as="targetPoint" />
          </mxGeometry>
        </mxCell>
        <mxCell id="uLpN24I7uQ6Q-Pao7zNZ-70" value="uName" style="ellipse;whiteSpace=wrap;html=1;align=center;fontStyle=4;" vertex="1" parent="1">
          <mxGeometry x="-140" y="80" width="100" height="40" as="geometry" />
        </mxCell>
        <mxCell id="uLpN24I7uQ6Q-Pao7zNZ-71" value="pass" style="ellipse;whiteSpace=wrap;html=1;align=center;fontStyle=4;" vertex="1" parent="1">
          <mxGeometry x="-60" y="40" width="100" height="40" as="geometry" />
        </mxCell>
        <mxCell id="uLpN24I7uQ6Q-Pao7zNZ-72" value="email" style="ellipse;whiteSpace=wrap;html=1;align=center;fontStyle=4;" vertex="1" parent="1">
          <mxGeometry x="20" y="80" width="100" height="40" as="geometry" />
        </mxCell>
        <mxCell id="uLpN24I7uQ6Q-Pao7zNZ-73" value="imageLocation" style="ellipse;whiteSpace=wrap;html=1;align=center;" vertex="1" parent="1">
          <mxGeometry x="-200" y="130" width="100" height="40" as="geometry" />
        </mxCell>
        <mxCell id="uLpN24I7uQ6Q-Pao7zNZ-74" value="firstName" style="ellipse;whiteSpace=wrap;html=1;align=center;" vertex="1" parent="1">
          <mxGeometry x="-170" y="197.5" width="100" height="40" as="geometry" />
        </mxCell>
        <mxCell id="uLpN24I7uQ6Q-Pao7zNZ-75" value="lastName" style="ellipse;whiteSpace=wrap;html=1;align=center;" vertex="1" parent="1">
          <mxGeometry x="-80" y="237.5" width="100" height="40" as="geometry" />
        </mxCell>
        <mxCell id="uLpN24I7uQ6Q-Pao7zNZ-78" value="" style="endArrow=none;html=1;exitX=0.5;exitY=0;exitDx=0;exitDy=0;entryX=0.5;entryY=1;entryDx=0;entryDy=0;" edge="1" parent="1" source="uLpN24I7uQ6Q-Pao7zNZ-38" target="uLpN24I7uQ6Q-Pao7zNZ-70">
          <mxGeometry width="50" height="50" relative="1" as="geometry">
            <mxPoint x="130" y="300" as="sourcePoint" />
            <mxPoint x="180" y="250" as="targetPoint" />
          </mxGeometry>
        </mxCell>
        <mxCell id="uLpN24I7uQ6Q-Pao7zNZ-79" value="" style="endArrow=none;html=1;entryX=0.5;entryY=1;entryDx=0;entryDy=0;exitX=0.5;exitY=0;exitDx=0;exitDy=0;" edge="1" parent="1" source="uLpN24I7uQ6Q-Pao7zNZ-38" target="uLpN24I7uQ6Q-Pao7zNZ-71">
          <mxGeometry width="50" height="50" relative="1" as="geometry">
            <mxPoint x="50" y="180" as="sourcePoint" />
            <mxPoint x="219.99999999999977" y="37.5" as="targetPoint" />
          </mxGeometry>
        </mxCell>
        <mxCell id="uLpN24I7uQ6Q-Pao7zNZ-80" value="" style="endArrow=none;html=1;entryX=0.5;entryY=1;entryDx=0;entryDy=0;exitX=0.5;exitY=0;exitDx=0;exitDy=0;" edge="1" parent="1" source="uLpN24I7uQ6Q-Pao7zNZ-38" target="uLpN24I7uQ6Q-Pao7zNZ-72">
          <mxGeometry width="50" height="50" relative="1" as="geometry">
            <mxPoint x="50" y="180" as="sourcePoint" />
            <mxPoint x="219.99999999999977" y="97.5" as="targetPoint" />
          </mxGeometry>
        </mxCell>
        <mxCell id="uLpN24I7uQ6Q-Pao7zNZ-81" value="" style="endArrow=none;html=1;entryX=1;entryY=0.5;entryDx=0;entryDy=0;exitX=0;exitY=0.5;exitDx=0;exitDy=0;" edge="1" parent="1" source="uLpN24I7uQ6Q-Pao7zNZ-38" target="uLpN24I7uQ6Q-Pao7zNZ-73">
          <mxGeometry width="50" height="50" relative="1" as="geometry">
            <mxPoint x="59.99999999999977" y="190" as="sourcePoint" />
            <mxPoint x="219.99999999999977" y="162.5" as="targetPoint" />
          </mxGeometry>
        </mxCell>
        <mxCell id="uLpN24I7uQ6Q-Pao7zNZ-82" value="" style="endArrow=none;html=1;entryX=1;entryY=0.5;entryDx=0;entryDy=0;exitX=0;exitY=0.5;exitDx=0;exitDy=0;" edge="1" parent="1" source="uLpN24I7uQ6Q-Pao7zNZ-38" target="uLpN24I7uQ6Q-Pao7zNZ-74">
          <mxGeometry width="50" height="50" relative="1" as="geometry">
            <mxPoint x="59.99999999999977" y="187.5" as="sourcePoint" />
            <mxPoint x="219.99999999999977" y="227.5" as="targetPoint" />
          </mxGeometry>
        </mxCell>
        <mxCell id="uLpN24I7uQ6Q-Pao7zNZ-83" value="" style="endArrow=none;html=1;exitX=0.5;exitY=1;exitDx=0;exitDy=0;entryX=0.5;entryY=0;entryDx=0;entryDy=0;" edge="1" parent="1" source="uLpN24I7uQ6Q-Pao7zNZ-38" target="uLpN24I7uQ6Q-Pao7zNZ-75">
          <mxGeometry width="50" height="50" relative="1" as="geometry">
            <mxPoint x="50" y="170" as="sourcePoint" />
            <mxPoint x="87" y="335" as="targetPoint" />
          </mxGeometry>
        </mxCell>
        <mxCell id="uLpN24I7uQ6Q-Pao7zNZ-84" value="userInfo" style="shape=rhombus;perimeter=rhombusPerimeter;whiteSpace=wrap;html=1;align=center;" vertex="1" parent="1">
          <mxGeometry x="120" y="147.5" width="120" height="60" as="geometry" />
        </mxCell>
        <mxCell id="uLpN24I7uQ6Q-Pao7zNZ-85" value="" style="endArrow=none;html=1;rounded=0;exitX=1;exitY=0.5;exitDx=0;exitDy=0;entryX=0;entryY=0.5;entryDx=0;entryDy=0;" edge="1" parent="1" source="uLpN24I7uQ6Q-Pao7zNZ-38" target="uLpN24I7uQ6Q-Pao7zNZ-84">
          <mxGeometry relative="1" as="geometry">
            <mxPoint x="30" y="270" as="sourcePoint" />
            <mxPoint x="190" y="270" as="targetPoint" />
          </mxGeometry>
        </mxCell>
        <mxCell id="uLpN24I7uQ6Q-Pao7zNZ-86" value="1" style="resizable=0;html=1;align=right;verticalAlign=bottom;" connectable="0" vertex="1" parent="uLpN24I7uQ6Q-Pao7zNZ-85">
          <mxGeometry x="1" relative="1" as="geometry">
            <mxPoint x="-10.59" y="-7.5" as="offset" />
          </mxGeometry>
        </mxCell>
        <mxCell id="uLpN24I7uQ6Q-Pao7zNZ-87" value="" style="endArrow=none;html=1;rounded=0;dashed=1;dashPattern=1 2;exitX=0.5;exitY=0;exitDx=0;exitDy=0;entryX=0;entryY=0.5;entryDx=0;entryDy=0;" edge="1" parent="1" source="uLpN24I7uQ6Q-Pao7zNZ-84" target="uLpN24I7uQ6Q-Pao7zNZ-65">
          <mxGeometry relative="1" as="geometry">
            <mxPoint x="190" y="270" as="sourcePoint" />
            <mxPoint x="350" y="270" as="targetPoint" />
          </mxGeometry>
        </mxCell>
        <mxCell id="uLpN24I7uQ6Q-Pao7zNZ-88" value="1" style="resizable=0;html=1;align=right;verticalAlign=bottom;" connectable="0" vertex="1" parent="uLpN24I7uQ6Q-Pao7zNZ-87">
          <mxGeometry x="1" relative="1" as="geometry">
            <mxPoint x="-10.09" y="20.21" as="offset" />
          </mxGeometry>
        </mxCell>
        <mxCell id="uLpN24I7uQ6Q-Pao7zNZ-91" value="" style="endArrow=none;html=1;rounded=0;exitX=0.5;exitY=1;exitDx=0;exitDy=0;entryX=0.5;entryY=0;entryDx=0;entryDy=0;" edge="1" parent="1" source="uLpN24I7uQ6Q-Pao7zNZ-84" target="uLpN24I7uQ6Q-Pao7zNZ-40">
          <mxGeometry relative="1" as="geometry">
            <mxPoint x="230" y="270" as="sourcePoint" />
            <mxPoint x="390" y="270" as="targetPoint" />
          </mxGeometry>
        </mxCell>
        <mxCell id="uLpN24I7uQ6Q-Pao7zNZ-92" value="1" style="resizable=0;html=1;align=right;verticalAlign=bottom;" connectable="0" vertex="1" parent="uLpN24I7uQ6Q-Pao7zNZ-91">
          <mxGeometry x="1" relative="1" as="geometry">
            <mxPoint x="0.26" y="-9.19" as="offset" />
          </mxGeometry>
        </mxCell>
        <mxCell id="uLpN24I7uQ6Q-Pao7zNZ-94" style="edgeStyle=orthogonalEdgeStyle;rounded=0;orthogonalLoop=1;jettySize=auto;html=1;exitX=0.5;exitY=1;exitDx=0;exitDy=0;" edge="1" parent="1" source="uLpN24I7uQ6Q-Pao7zNZ-59" target="uLpN24I7uQ6Q-Pao7zNZ-59">
          <mxGeometry relative="1" as="geometry" />
        </mxCell>
        <mxCell id="uLpN24I7uQ6Q-Pao7zNZ-95" value="contains" style="shape=rhombus;perimeter=rhombusPerimeter;whiteSpace=wrap;html=1;align=center;" vertex="1" parent="1">
          <mxGeometry x="530" y="147.5" width="120" height="60" as="geometry" />
        </mxCell>
        <mxCell id="uLpN24I7uQ6Q-Pao7zNZ-96" value="" style="shape=link;html=1;rounded=0;entryX=0;entryY=0.5;entryDx=0;entryDy=0;exitX=1;exitY=0.5;exitDx=0;exitDy=0;" edge="1" parent="1" source="uLpN24I7uQ6Q-Pao7zNZ-84" target="uLpN24I7uQ6Q-Pao7zNZ-95">
          <mxGeometry relative="1" as="geometry">
            <mxPoint x="310" y="270" as="sourcePoint" />
            <mxPoint x="470" y="270" as="targetPoint" />
          </mxGeometry>
        </mxCell>
        <mxCell id="uLpN24I7uQ6Q-Pao7zNZ-97" value="1" style="resizable=0;html=1;align=right;verticalAlign=bottom;" connectable="0" vertex="1" parent="uLpN24I7uQ6Q-Pao7zNZ-96">
          <mxGeometry x="1" relative="1" as="geometry">
            <mxPoint x="-50.59" y="-7.5" as="offset" />
          </mxGeometry>
        </mxCell>
        <mxCell id="uLpN24I7uQ6Q-Pao7zNZ-101" value="" style="endArrow=none;html=1;rounded=0;dashed=1;dashPattern=1 2;exitX=1;exitY=0.5;exitDx=0;exitDy=0;entryX=0;entryY=0.5;entryDx=0;entryDy=0;" edge="1" parent="1" source="uLpN24I7uQ6Q-Pao7zNZ-95" target="uLpN24I7uQ6Q-Pao7zNZ-41">
          <mxGeometry relative="1" as="geometry">
            <mxPoint x="430" y="410" as="sourcePoint" />
            <mxPoint x="590" y="410" as="targetPoint" />
          </mxGeometry>
        </mxCell>
        <mxCell id="uLpN24I7uQ6Q-Pao7zNZ-102" value="N" style="resizable=0;html=1;align=right;verticalAlign=bottom;" connectable="0" vertex="1" parent="uLpN24I7uQ6Q-Pao7zNZ-101">
          <mxGeometry x="1" relative="1" as="geometry">
            <mxPoint x="-20" as="offset" />
          </mxGeometry>
        </mxCell>
      </root>
    </mxGraphModel>
  </diagram>
</mxfile>
